PathFileType	4	(X/Y/Z)	path1_06_0-578.trc
DataRate	CameraRate	NumFrames	NumMarkers	Units	OrigDataRate	OrigDataStartFrame	OrigNumFrames
30	30	6	22	m	30	505	578
Frame#	Time	Hip			RHip			RKnee			RAnkle			RBigToe			RSmallToe			RHeel			LHip			LKnee			LAnkle			LBigToe			LSmallToe			LHeel			Neck			Head			Nose			RShoulder			RElbow			RWrist			LShoulder			LElbow			LWrist		
		X1	Y1	Z1	X2	Y2	Z2	X3	Y3	Z3	X4	Y4	Z4	X5	Y5	Z5	X6	Y6	Z6	X7	Y7	Z7	X8	Y8	Z8	X9	Y9	Z9	X10	Y10	Z10	X11	Y11	Z11	X12	Y12	Z12	X13	Y13	Z13	X14	Y14	Z14	X15	Y15	Z15	X16	Y16	Z16	X17	Y17	Z17	X18	Y18	Z18	X19	Y19	Z19	X20	Y20	Z20	X21	Y21	Z21	X22	Y22	Z22
506	16.866666666666667	-2.3742867343961014	0.7951723257909371	0.8216547042251001	-2.3748478306070626	0.7612733370708549	0.7323682543006246	-2.32093226887851	0.4246457396753121	0.7293149535898811	-2.267577832373212	0.06500739373850628	0.7523548639034903	-2.4454898977481223	-0.021970117015812782	0.7467373756983089	-2.3982310630194883	-0.033494210265417976	0.6906064363054336	-2.223341952118427	-0.0021510457141238333	0.7717314321590717	-2.368778980029116	0.7622720496055309	0.9007535440329874	-2.3379415436406297	0.4079127237401748	0.9211065748172729	-2.286226737189061	0.0606086260864641	0.9228663275966615	-2.525712884292897	-0.032675336193420945	0.9620644869666158	-2.4947429601741185	-0.04696089577139853	0.9755140793603554	-2.2502952390039166	-0.005992177214318666	0.9187857466916062	-2.332901761399429	1.4363261831102736	0.8197695861558569	-2.494962073935471	1.681205936874686	0.7824552878093617	-2.462409697023506	1.4852491913846213	0.8390724591776781	-2.296412547170471	1.3314812373672913	0.6441402030331728	-2.2683699972078	1.0514162074867444	0.6031428033275602	-2.3190650514458393	0.7997041918433371	0.5887529739085534	-2.3150393210387774	1.3221311036195833	1.0019648435173383	-2.3070906353837133	1.0561371555693644	1.037031452993979	-2.343440198396117	0.8145377757517847	1.0562307231728043
507	16.9	-2.3783737948723873	0.7949138076091836	0.8254735704359858	-2.3789253811156468	0.7597864997422994	0.7364149015993062	-2.3221463155489106	0.42495454730907295	0.7313894337930801	-2.2680486031467666	0.06488265889483881	0.7534995452152312	-2.4459176131801406	-0.022678758989918814	0.7446383837248434	-2.3997770790037953	-0.03399499814172772	0.6896543034220073	-2.223746071858368	-0.0022309289602751668	0.7726114683387532	-2.372477220472598	0.7603662615384398	0.9036691014231149	-2.3362118486058763	0.40748773543145395	0.9226087054643493	-2.2847375030725527	0.06075547909719607	0.9229028714206184	-2.524062359514883	-0.03341644319498831	0.9597906958370823	-2.497605161468934	-0.04889423863177488	0.9731243476364732	-2.25060278739305	-0.007593064575946032	0.9202601138333483	-2.3373751919769035	1.4371296536464113	0.8245546882193111	-2.4955316670943093	1.684503099424803	0.7864798711378634	-2.464354339722214	1.4895200117451062	0.8555206526792768	-2.3009925622360408	1.3317396284052359	0.6481066603485037	-2.271196253803871	1.0519300970296483	0.6080444341505618	-2.31801473583126	0.8016280951543949	0.5922513698843275	-2.3226138355330734	1.3219802137917345	1.0060433117794676	-2.3146728797159293	1.0547213934983521	1.0389729016980163	-2.350678749291802	0.8137070876358423	1.0563676808240023
508	16.933333333333334	-2.381786878855676	0.7950509410906383	0.8293344968472657	-2.3823807288603107	0.7587203961681579	0.740851529789062	-2.32329674147819	0.4252578135282158	0.733622066798656	-2.2684769796043898	0.06469932450731178	0.7545896668293232	-2.4460739751529696	-0.023146408865029458	0.7425527196666263	-2.4012285746191986	-0.034282488865946696	0.6889976728947022	-2.224094444148281	-0.002186413485695223	0.7735099765566616	-2.3756028752317015	0.7590356700004011	0.9072186919908042	-2.3348814050343893	0.40728123071593725	0.9244205049076195	-2.283847682595179	0.060777702588647266	0.9229655741406206	-2.5220314386092144	-0.03408083579118371	0.9577199709716817	-2.4984231049015064	-0.050103588421724986	0.9715675142886755	-2.2530017790008956	-0.010869363433687534	0.9233615455680573	-2.341402437558064	1.437709529846329	0.8288128347916305	-2.4858783467132315	1.6851579001511587	0.793777491029898	-2.4657770736746896	1.4937836095993782	0.8709514793188129	-2.305139460765214	1.3319855181104219	0.651679564362254	-2.273595163818052	1.0523866211207598	0.6129677880603107	-2.316462653905083	0.8035895446901135	0.596028948383409	-2.329358829661846	1.322011235587822	1.0098810642946678	-2.320981706259436	1.0535928305100626	1.0412092908613075	-2.3569144075828845	0.8126727720328739	1.0568051630336526
509	16.966666666666665	-2.3845810284293556	0.7955255988858596	0.8329887298371645	-2.3851782564836217	0.7582016888353617	0.7452485687975661	-2.324335846784441	0.4256260382389214	0.7357192908016892	-2.2688622903888715	0.0644137236868603	0.7554286329703535	-2.445993874293327	-0.023394204233026173	0.7407824714672927	-2.4023397606637467	-0.03431280352903598	0.6886396602423446	-2.224359008280143	-0.002151752848359806	0.7743404634585598	-2.3783420590075446	0.7583908298077185	0.9108907732083202	-2.3341639586247616	0.40720532461782716	0.9262302494823905	-2.2837058305284983	0.06055061041904001	0.9231352899847298	-2.5202951938334524	-0.0346678080453988	0.9561045050330265	-2.4981713078130134	-0.050725023147979054	0.9708557257323642	-2.257184435119776	-0.015672137733571227	0.9279103575850343	-2.345007813438922	1.4380009645481338	0.8325059803812536	-2.4671020410353806	1.683229202790037	0.8042687871355454	-2.466940123225793	1.4973992324646201	0.8829418745569166	-2.308787143866555	1.3322434277387463	0.6548519160950941	-2.2756003240617177	1.0526841668252405	0.617779789103507	-2.314788576789959	0.8052367977930543	0.600142950372059	-2.3353598791867776	1.3220823735654825	1.0133527879720583	-2.3260904817142047	1.052804167037274	1.0434593250593158	-2.362012657563964	0.8114431642790039	1.057412142648122
510	17.0	-2.3867733116645975	0.7961280079072802	0.8362929353668603	-2.3872731893149615	0.7580183225271774	0.7493029059358778	-2.325125287410709	0.42602408461123614	0.7375154623617305	-2.269213119850335	0.06406400397769009	0.7559644994118113	-2.4457417319480763	-0.0235534064319492	0.7395954545347191	-2.4030477353754143	-0.03424022359602938	0.6886709280908953	-2.224567624348928	-0.0022351778434537024	0.7750272236829856	-2.380774457487257	0.7581134964794991	0.9142794916741985	-2.3340333127345314	0.40703962233863156	0.9277652175227793	-2.284247275083615	0.05998106436075606	0.9234524965005962	-2.519075843696173	-0.0351624247873142	0.9549736924350316	-2.4975535252247356	-0.050904308604486075	0.9708289907280925	-2.262223587421939	-0.02120509843599757	0.9329797578335137	-2.3481713752239086	1.43798861866671	0.8358300869884926	-2.4438623062621008	1.6797564579347966	0.8163957308463036	-2.4679810168885505	1.5001046452129558	0.8913892281285668	-2.3120007509552694	1.3325689604421085	0.6577716204496988	-2.2772760390008795	1.0528826965230045	0.622356061831829	-2.313300780248065	0.8065017852210182	0.6046329218453838	-2.3407126388386645	1.3219329604623624	1.0164868583197235	-2.3303737958637987	1.0522418836961198	1.04561596134412	-2.36614904690401	0.8100469325094459	1.058080103028377
511	17.033333333333335	-2.3884121132750664	0.7966193296239199	0.8391612618566957	-2.388698880827164	0.7578152272725257	0.7528809448084055	-2.3255540008206914	0.42637638636794184	0.7389992309869261	-2.2694762593364115	0.0637659751497393	0.7562738452525416	-2.44538593914763	-0.023734044942888843	0.7390804769403743	-2.40343264816738	-0.03419836438817276	0.6891514893502371	-2.2247206396540773	-0.0024362104481553217	0.7755003964326093	-2.3829094593919096	0.7577066919937031	0.9171595574097764	-2.3343049140573595	0.4065847327404163	0.9288932759787755	-2.2852073060168996	0.059063414275257256	0.9238992231166667	-2.5183454152118174	-0.03556072694328107	0.9542020377843821	-2.49696355262509	-0.05084643695506844	0.9711675495545421	-2.26690075348242	-0.026245919653113233	0.9372596752615466	-2.350886684785664	1.4377686006168497	0.8390030935269831	-2.4226071417736756	1.6762224283506875	0.8278542199079925	-2.468985633340808	1.5019344210039647	0.8974601251703928	-2.3148685781436327	1.3330127859206204	0.660601146628505	-2.2786930476593388	1.0531391122388571	0.6265763654664793	-2.3121981235794324	0.8075667420534569	0.6094064528380879	-2.3454705076780753	1.3213702949534056	1.0194262090903643	-2.334227380431733	1.0516628229528675	1.047732002470671	-2.3696236085829874	0.8085285732383776	1.0587528576843324
